<svg width="158" height="40" viewBox="0 0 63 16" fill="none" xmlns="http://www.w3.org/2000/svg">
  <path
    fill-rule="evenodd"
    clip-rule="evenodd"
    d="M6.91.087c-.63.132-1.224.47-2.412 1.146l-1.204.685c-1.2.683-1.8 1.024-2.236 1.504A4.063 4.063 0 0 0 .202 4.89C0 5.505 0 6.192 0 7.567v.878c0 1.381 0 2.072.203 2.689.18.546.474 1.048.863 1.472.44.48 1.044.821 2.252 1.502l1.208.68c1.177.664 1.766.996 2.391 1.126a4.113 4.113 0 0 0 1.677 0c.625-.131 1.214-.463 2.391-1.128l1.195-.675c1.207-.68 1.81-1.022 2.25-1.502.388-.424.682-.926.862-1.471.203-.617.203-1.307.203-2.687v-.885c0-1.372 0-2.059-.201-2.672a4.063 4.063 0 0 0-.854-1.468c-.436-.479-1.034-.82-2.231-1.504l-1.198-.684C9.825.56 9.23.22 8.6.088a4.114 4.114 0 0 0-1.691 0ZM5.558 5.98a2.021 2.021 0 1 0 0 4.042h4.379a2.021 2.021 0 0 0 0-4.042h-4.38Z"
    fill="#000000"
    fill-opacity=".9"
  />
  <path
    fill-rule="evenodd"
    clip-rule="evenodd"
    d="M48.21 1.01c.42 0 .758.34.758.758v1.264h3.369a.758.758 0 1 1 0 1.515h-3.369v3.285a2.274 2.274 0 0 0 2.274 2.273h1.01a.758.758 0 1 1 0 1.516h-1.01a3.79 3.79 0 0 1-3.79-3.79V4.548h-1.178a.758.758 0 1 1 0-1.515h1.179V1.768c0-.418.339-.757.758-.757ZM20.17 6.822a3.79 3.79 0 0 1 3.789-3.79h1.01a3.79 3.79 0 0 1 3.79 3.79v1.01a3.79 3.79 0 0 1-3.79 3.79h-1.01c-.853 0-1.64-.282-2.274-.758v3.032a.758.758 0 1 1-1.515 0V6.82Zm1.515 1.01a2.274 2.274 0 0 0 2.274 2.274h1.01a2.274 2.274 0 0 0 2.274-2.273V6.82a2.274 2.274 0 0 0-2.274-2.274h-1.01a2.274 2.274 0 0 0-2.274 2.274v1.01Zm8.59-1.01a3.79 3.79 0 0 1 3.79-3.79h1.01a.758.758 0 1 1 0 1.516h-1.01a2.274 2.274 0 0 0-2.274 2.274v4.042a.758.758 0 0 1-1.516 0V6.821Zm6.147 0a3.79 3.79 0 0 1 3.79-3.79h1.01a3.79 3.79 0 0 1 3.79 3.79v1.01a3.79 3.79 0 0 1-3.79 3.79h-1.01a3.79 3.79 0 0 1-3.79-3.79v-1.01Zm3.79-2.274a2.274 2.274 0 0 0-2.274 2.274v1.01a2.274 2.274 0 0 0 2.274 2.274h1.01a2.274 2.274 0 0 0 2.274-2.273V6.82a2.274 2.274 0 0 0-2.274-2.274h-1.01Zm13.81 2.274a3.79 3.79 0 0 1 3.79-3.79h1.01a3.79 3.79 0 0 1 3.79 3.79v1.01a3.79 3.79 0 0 1-3.79 3.79h-1.01a3.79 3.79 0 0 1-3.79-3.79v-1.01Zm3.79-2.274a2.274 2.274 0 0 0-2.274 2.274v1.01a2.274 2.274 0 0 0 2.274 2.274h1.01a2.274 2.274 0 0 0 2.274-2.273V6.82a2.274 2.274 0 0 0-2.274-2.274h-1.01Z"
    fill="#000000"
    fill-opacity=".9"
  />
</svg>
